<svg width="300" height="400" viewBox="0 0 300 400" xmlns="http://www.w3.org/2000/svg">
  <defs>
    <!-- 主背景渐变 -->
    <linearGradient id="mainBgGradient" x1="0%" y1="0%" x2="100%" y2="100%">
      <stop offset="0%" style="stop-color:#4A90E2;stop-opacity:1" />
      <stop offset="50%" style="stop-color:#357ABD;stop-opacity:1" />
      <stop offset="100%" style="stop-color:#2E5BBA;stop-opacity:1" />
    </linearGradient>
    
    <!-- 金色渐变 -->
    <linearGradient id="goldGradient" x1="0%" y1="0%" x2="100%" y2="100%">
      <stop offset="0%" style="stop-color:#FFD700;stop-opacity:1" />
      <stop offset="100%" style="stop-color:#FFA500;stop-opacity:1" />
    </linearGradient>
    
    <!-- 绿色渐变 -->
    <linearGradient id="greenGradient" x1="0%" y1="0%" x2="100%" y2="100%">
      <stop offset="0%" style="stop-color:#32CD32;stop-opacity:1" />
      <stop offset="100%" style="stop-color:#228B22;stop-opacity:1" />
    </linearGradient>
    
    <!-- 橙色渐变 -->
    <linearGradient id="orangeGradient" x1="0%" y1="0%" x2="100%" y2="100%">
      <stop offset="0%" style="stop-color:#FF8C00;stop-opacity:1" />
      <stop offset="100%" style="stop-color:#FF6347;stop-opacity:1" />
    </linearGradient>
    
    <!-- 发光效果 -->
    <filter id="glow" x="-50%" y="-50%" width="200%" height="200%">
      <feGaussianBlur stdDeviation="3" result="coloredBlur"/>
      <feMerge> 
        <feMergeNode in="coloredBlur"/>
        <feMergeNode in="SourceGraphic"/>
      </feMerge>
    </filter>
    
    <!-- 阴影效果 -->
    <filter id="shadow" x="-50%" y="-50%" width="200%" height="200%">
      <feDropShadow dx="2" dy="4" stdDeviation="3" flood-opacity="0.3"/>
    </filter>
  </defs>
  
  <!-- 主椭圆背景 -->
  <ellipse cx="150" cy="180" rx="120" ry="150" 
           fill="url(#mainBgGradient)" 
           stroke="#ffffff" 
           stroke-width="3" 
           filter="url(#shadow)"/>
  
  <!-- 装饰性光环 -->
  <ellipse cx="150" cy="180" rx="110" ry="140" 
           fill="none" 
           stroke="rgba(255,255,255,0.2)" 
           stroke-width="1"/>
  <ellipse cx="150" cy="180" rx="100" ry="130" 
           fill="none" 
           stroke="rgba(255,255,255,0.1)" 
           stroke-width="1"/>
  
  <!-- 顶部货币符号区域 -->
  <g transform="translate(150, 100)">
    <!-- 人民币符号 -->
    <circle cx="-35" cy="0" r="18" fill="url(#goldGradient)" filter="url(#glow)"/>
    <text x="-35" y="6" text-anchor="middle" font-family="Arial, sans-serif" 
          font-size="20" font-weight="bold" fill="#fff">¥</text>
    
    <!-- 美元符号 -->
    <circle cx="35" cy="0" r="18" fill="url(#greenGradient)" filter="url(#glow)"/>
    <text x="35" y="6" text-anchor="middle" font-family="Arial, sans-serif" 
          font-size="20" font-weight="bold" fill="#fff">$</text>
    
    <!-- 连接线 -->
    <path d="M-17,0 Q0,-10 17,0" stroke="rgba(255,255,255,0.6)" stroke-width="2" fill="none"/>
  </g>
  
  <!-- 中心握手图标 -->
  <g transform="translate(150, 180)">
    <!-- 握手背景圆 -->
    <circle cx="0" cy="0" r="35" fill="rgba(255,255,255,0.9)" filter="url(#glow)"/>
    
    <!-- 简化握手图标 -->
    <g transform="scale(0.8)">
      <!-- 左手 -->
      <path d="M-25,-8 Q-35,-15 -38,-2 Q-40,5 -35,12 L-15,18 Q-8,20 -2,16 L5,8" 
            fill="#4A90E2" stroke="#2E5BBA" stroke-width="1"/>
      
      <!-- 右手 -->
      <path d="M25,-8 Q35,-15 38,-2 Q40,5 35,12 L15,18 Q8,20 2,16 L-5,8" 
            fill="#4A90E2" stroke="#2E5BBA" stroke-width="1"/>
      
      <!-- 握手连接 -->
      <ellipse cx="0" cy="8" rx="12" ry="8" fill="#4A90E2" stroke="#2E5BBA" stroke-width="1"/>
    </g>
  </g>
  
  <!-- 互助网络图标 -->
  <g transform="translate(150, 250)" opacity="0.8">
    <!-- 网络节点 -->
    <circle cx="-25" cy="-10" r="6" fill="url(#orangeGradient)"/>
    <circle cx="25" cy="-10" r="6" fill="url(#orangeGradient)"/>
    <circle cx="0" cy="15" r="6" fill="url(#orangeGradient)"/>
    <circle cx="-15" cy="25" r="5" fill="url(#goldGradient)"/>
    <circle cx="15" cy="25" r="5" fill="url(#goldGradient)"/>
    
    <!-- 连接线 -->
    <line x1="-25" y1="-10" x2="25" y2="-10" stroke="rgba(255,255,255,0.7)" stroke-width="2"/>
    <line x1="-25" y1="-10" x2="0" y2="15" stroke="rgba(255,255,255,0.7)" stroke-width="2"/>
    <line x1="25" y1="-10" x2="0" y2="15" stroke="rgba(255,255,255,0.7)" stroke-width="2"/>
    <line x1="0" y1="15" x2="-15" y2="25" stroke="rgba(255,255,255,0.7)" stroke-width="1.5"/>
    <line x1="0" y1="15" x2="15" y2="25" stroke="rgba(255,255,255,0.7)" stroke-width="1.5"/>
  </g>
  
  <!-- 装饰性星星 -->
  <g opacity="0.6">
    <g transform="translate(80, 120)">
      <polygon points="0,-6 2,-2 6,0 2,2 0,6 -2,2 -6,0 -2,-2" fill="#FFD700">
        <animateTransform attributeName="transform" type="rotate" 
                         values="0;360" dur="8s" repeatCount="indefinite"/>
      </polygon>
    </g>
    
    <g transform="translate(220, 140)">
      <polygon points="0,-4 1.5,-1.5 4,0 1.5,1.5 0,4 -1.5,1.5 -4,0 -1.5,-1.5" fill="#32CD32">
        <animateTransform attributeName="transform" type="rotate" 
                         values="360;0" dur="6s" repeatCount="indefinite"/>
      </polygon>
    </g>
    
    <g transform="translate(90, 280)">
      <polygon points="0,-5 1.5,-1.5 5,0 1.5,1.5 0,5 -1.5,1.5 -5,0 -1.5,-1.5" fill="#FF8C00">
        <animateTransform attributeName="transform" type="rotate" 
                         values="0;360" dur="10s" repeatCount="indefinite"/>
      </polygon>
    </g>
    
    <g transform="translate(210, 260)">
      <polygon points="0,-3 1,-1 3,0 1,1 0,3 -1,1 -3,0 -1,-1" fill="#FFD700">
        <animateTransform attributeName="transform" type="rotate" 
                         values="360;0" dur="7s" repeatCount="indefinite"/>
      </polygon>
    </g>
  </g>
  
  <!-- 底部文字 -->
  <text x="150" y="350" text-anchor="middle" 
        font-family="Microsoft YaHei, Arial, sans-serif" 
        font-size="24" 
        font-weight="bold" 
        fill="#4A90E2">金融互助</text>
  
  <!-- 英文副标题 -->
  <text x="150" y="375" text-anchor="middle" 
        font-family="Arial, sans-serif" 
        font-size="12" 
        fill="#666666">Financial Cooperation</text>
</svg> 