<svg width="1920" height="1080" viewBox="0 0 1920 1080" xmlns="http://www.w3.org/2000/svg">
  <defs>
    <!-- 主背景渐变 -->
    <linearGradient id="mainGradient" x1="0%" y1="0%" x2="100%" y2="100%">
      <stop offset="0%" style="stop-color:#1e3c72;stop-opacity:1" />
      <stop offset="50%" style="stop-color:#2a5298;stop-opacity:1" />
      <stop offset="100%" style="stop-color:#1e3c72;stop-opacity:1" />
    </linearGradient>
    
    <!-- 装饰渐变1 -->
    <linearGradient id="accentGradient1" x1="0%" y1="0%" x2="100%" y2="100%">
      <stop offset="0%" style="stop-color:#4facfe;stop-opacity:0.3" />
      <stop offset="100%" style="stop-color:#00f2fe;stop-opacity:0.1" />
    </linearGradient>
    
    <!-- 装饰渐变2 -->
    <linearGradient id="accentGradient2" x1="0%" y1="0%" x2="100%" y2="100%">
      <stop offset="0%" style="stop-color:#ffd89b;stop-opacity:0.2" />
      <stop offset="100%" style="stop-color:#19547b;stop-opacity:0.1" />
    </linearGradient>
    
    <!-- 金色渐变 -->
    <linearGradient id="goldGradient" x1="0%" y1="0%" x2="100%" y2="100%">
      <stop offset="0%" style="stop-color:#ffd700;stop-opacity:0.8" />
      <stop offset="100%" style="stop-color:#ffb347;stop-opacity:0.6" />
    </linearGradient>
    
    <!-- 绿色渐变 -->
    <linearGradient id="greenGradient" x1="0%" y1="0%" x2="100%" y2="100%">
      <stop offset="0%" style="stop-color:#56ab2f;stop-opacity:0.8" />
      <stop offset="100%" style="stop-color:#a8e6cf;stop-opacity:0.6" />
    </linearGradient>
    
    <!-- 模糊效果 -->
    <filter id="blur">
      <feGaussianBlur stdDeviation="2"/>
    </filter>
    
    <!-- 发光效果 -->
    <filter id="glow">
      <feGaussianBlur stdDeviation="3" result="coloredBlur"/>
      <feMerge> 
        <feMergeNode in="coloredBlur"/>
        <feMergeNode in="SourceGraphic"/>
      </feMerge>
    </filter>
  </defs>
  
  <!-- 主背景 -->
  <rect width="1920" height="1080" fill="url(#mainGradient)"/>
  
  <!-- 装饰性几何形状 -->
  <!-- 左上角大圆 -->
  <circle cx="200" cy="200" r="150" fill="url(#accentGradient1)" opacity="0.4"/>
  <circle cx="180" cy="180" r="100" fill="url(#accentGradient2)" opacity="0.3"/>
  
  <!-- 右下角形状 -->
  <circle cx="1720" cy="880" r="200" fill="url(#accentGradient1)" opacity="0.3"/>
  <circle cx="1750" cy="900" r="120" fill="url(#accentGradient2)" opacity="0.4"/>
  
  <!-- 中间装饰波浪 -->
  <path d="M0,600 Q480,500 960,550 T1920,500 L1920,1080 L0,1080 Z" 
        fill="url(#accentGradient1)" opacity="0.1"/>
  
  <!-- 金融图标区域 - 左侧 -->
  <g transform="translate(300, 300)" opacity="0.6">
    <!-- 银行建筑图标 -->
    <g>
      <rect x="0" y="60" width="80" height="40" fill="url(#goldGradient)" rx="2"/>
      <rect x="10" y="40" width="10" height="60" fill="url(#goldGradient)"/>
      <rect x="30" y="40" width="10" height="60" fill="url(#goldGradient)"/>
      <rect x="50" y="40" width="10" height="60" fill="url(#goldGradient)"/>
      <rect x="70" y="40" width="10" height="60" fill="url(#goldGradient)"/>
      <rect x="-5" y="35" width="90" height="8" fill="url(#goldGradient)"/>
      <polygon points="5,35 40,10 75,35" fill="url(#goldGradient)"/>
    </g>
  </g>
  
  <!-- 货币流动图标 - 中间左 -->
  <g transform="translate(600, 400)" opacity="0.5">
    <!-- 货币符号和箭头 -->
    <circle cx="0" cy="0" r="25" fill="url(#greenGradient)"/>
    <text x="0" y="8" text-anchor="middle" font-family="Arial, sans-serif" 
          font-size="24" font-weight="bold" fill="#fff">¥</text>
    
    <!-- 流动箭头 -->
    <path d="M30,0 L70,0 M60,-10 L70,0 L60,10" 
          stroke="url(#greenGradient)" stroke-width="3" fill="none"/>
    
    <circle cx="100" cy="0" r="25" fill="url(#goldGradient)"/>
    <text x="100" y="8" text-anchor="middle" font-family="Arial, sans-serif" 
          font-size="24" font-weight="bold" fill="#fff">$</text>
  </g>
  
  <!-- 握手图标 - 中间 -->
  <g transform="translate(960, 350)" opacity="0.7">
    <circle cx="0" cy="0" r="60" fill="url(#accentGradient1)" filter="url(#glow)"/>
    <!-- 简化的握手图标 -->
    <path d="M-30,-10 Q-40,-20 -35,-5 Q-32,5 -20,15 Q-10,20 0,15 Q10,20 20,15 Q32,5 35,-5 Q40,-20 30,-10" 
          fill="#ffffff" opacity="0.9"/>
    <ellipse cx="0" cy="10" rx="25" ry="12" fill="#ffffff" opacity="0.9"/>
  </g>
  
  <!-- 图表图标 - 右侧 -->
  <g transform="translate(1400, 450)" opacity="0.5">
    <!-- 上升趋势图 -->
    <rect x="0" y="40" width="12" height="20" fill="url(#greenGradient)"/>
    <rect x="20" y="30" width="12" height="30" fill="url(#greenGradient)"/>
    <rect x="40" y="20" width="12" height="40" fill="url(#greenGradient)"/>
    <rect x="60" y="10" width="12" height="50" fill="url(#greenGradient)"/>
    
    <!-- 上升箭头 -->
    <path d="M80,10 L95,25 M85,15 L95,25 L85,35" 
          stroke="url(#greenGradient)" stroke-width="3" fill="none"/>
  </g>
  
  <!-- 互助网络图标 - 右上 -->
  <g transform="translate(1500, 200)" opacity="0.4">
    <!-- 连接网络 -->
    <circle cx="0" cy="0" r="8" fill="url(#goldGradient)"/>
    <circle cx="40" cy="20" r="8" fill="url(#goldGradient)"/>
    <circle cx="20" cy="50" r="8" fill="url(#goldGradient)"/>
    <circle cx="-30" cy="30" r="8" fill="url(#goldGradient)"/>
    
    <!-- 连接线 -->
    <line x1="0" y1="0" x2="40" y2="20" stroke="url(#goldGradient)" stroke-width="2" opacity="0.7"/>
    <line x1="0" y1="0" x2="20" y2="50" stroke="url(#goldGradient)" stroke-width="2" opacity="0.7"/>
    <line x1="0" y1="0" x2="-30" y2="30" stroke="url(#goldGradient)" stroke-width="2" opacity="0.7"/>
    <line x1="40" y1="20" x2="20" y2="50" stroke="url(#goldGradient)" stroke-width="2" opacity="0.7"/>
  </g>
  
  <!-- 装饰性粒子效果 -->
  <g opacity="0.3">
    <circle cx="150" cy="450" r="3" fill="#ffffff">
      <animate attributeName="opacity" values="0.3;0.8;0.3" dur="3s" repeatCount="indefinite"/>
    </circle>
    <circle cx="1200" cy="300" r="2" fill="#ffd700">
      <animate attributeName="opacity" values="0.2;0.7;0.2" dur="2.5s" repeatCount="indefinite"/>
    </circle>
    <circle cx="800" cy="650" r="4" fill="#4facfe">
      <animate attributeName="opacity" values="0.4;0.9;0.4" dur="4s" repeatCount="indefinite"/>
    </circle>
    <circle cx="1600" cy="700" r="2" fill="#ffffff">
      <animate attributeName="opacity" values="0.3;0.8;0.3" dur="3.5s" repeatCount="indefinite"/>
    </circle>
  </g>
  
  <!-- 底部装饰线 -->
  <path d="M0,950 Q480,920 960,940 T1920,930" 
        stroke="url(#goldGradient)" stroke-width="2" fill="none" opacity="0.4"/>
  
  <!-- 顶部装饰线 -->
  <path d="M0,150 Q480,120 960,140 T1920,130" 
        stroke="url(#accentGradient1)" stroke-width="2" fill="none" opacity="0.4"/>
  
  <!-- 右侧文字区域淡化遮罩（为登录表单留出空间） -->
  <rect x="1200" y="200" width="600" height="600" fill="url(#mainGradient)" opacity="0.3" rx="20"/>
</svg> 